<svg width="128" height="32" viewBox="0 0 128 32" fill="none" xmlns="http://www.w3.org/2000/svg">
<path fill-rule="evenodd" clip-rule="evenodd" d="M28 14L28 9C28 8.44772 27.5523 8 27 8L24 8C23.4477 8 23 8.44772 23 9L23 13C23 16.3137 20.3137 19 17 19L13 19C12.4477 19 12 19.4477 12 20L12 23C12 23.5523 12.4477 24 13 24L18 24C23.5228 24 28 19.5228 28 14Z" fill="#282828"/>
<path fill-rule="evenodd" clip-rule="evenodd" d="M4 18L4 23C4 23.5523 4.44772 24 5 24L8 24C8.55228 24 9 23.5523 9 23L9 19C9 15.6863 11.6863 13 15 13L19 13C19.5523 13 20 12.5523 20 12L20 9C20 8.44771 19.5523 8 19 8L14 8C8.47715 8 4 12.4772 4 18Z" fill="#282828"/>
<path d="M45.776 25.444C44.512 25.444 43.32 25.244 42.2 24.844C41.096 24.428 40.16 23.772 39.392 22.876C38.624 21.964 38.16 20.812 38 19.42H40.88C41.152 20.7 41.744 21.62 42.656 22.18C43.568 22.724 44.624 22.996 45.824 22.996C46.992 22.996 47.904 22.756 48.56 22.276C49.232 21.78 49.568 21.06 49.568 20.116C49.568 19.412 49.36 18.852 48.944 18.436C48.528 18.004 48.008 17.692 47.384 17.5C46.76 17.292 45.904 17.068 44.816 16.828C43.488 16.54 42.416 16.252 41.6 15.964C40.784 15.66 40.088 15.18 39.512 14.524C38.936 13.852 38.648 12.932 38.648 11.764C38.648 10.676 38.912 9.74 39.44 8.956C39.968 8.172 40.704 7.58 41.648 7.18C42.592 6.764 43.672 6.556 44.888 6.556C46.68 6.556 48.224 7.02 49.52 7.948C50.816 8.86 51.608 10.236 51.896 12.076H49.064C48.824 11.036 48.32 10.268 47.552 9.772C46.8 9.276 45.896 9.028 44.84 9.028C43.784 9.028 42.96 9.252 42.368 9.7C41.776 10.132 41.48 10.74 41.48 11.524C41.48 12.132 41.672 12.62 42.056 12.988C42.456 13.356 42.944 13.636 43.52 13.828C44.096 14.02 44.896 14.228 45.92 14.452C47.312 14.756 48.432 15.068 49.28 15.388C50.144 15.708 50.88 16.236 51.488 16.972C52.096 17.692 52.4 18.684 52.4 19.948C52.4 21.644 51.816 22.988 50.648 23.98C49.496 24.956 47.872 25.444 45.776 25.444Z" fill="#282828"/>
<path d="M60.2617 25.42C58.9657 25.42 57.8057 25.124 56.7817 24.532C55.7737 23.94 54.9817 23.116 54.4057 22.06C53.8457 20.988 53.5657 19.772 53.5657 18.412C53.5657 17.084 53.8457 15.9 54.4057 14.86C54.9817 13.82 55.7737 13.004 56.7817 12.412C57.8057 11.82 58.9657 11.524 60.2617 11.524C61.5577 11.524 62.7097 11.82 63.7177 12.412C64.7417 13.004 65.5337 13.82 66.0937 14.86C66.6697 15.9 66.9577 17.084 66.9577 18.412C66.9577 19.756 66.6777 20.964 66.1177 22.036C65.5577 23.092 64.7657 23.924 63.7417 24.532C62.7337 25.124 61.5737 25.42 60.2617 25.42ZM60.2617 23.116C61.0297 23.116 61.7177 22.916 62.3257 22.516C62.9337 22.116 63.4057 21.556 63.7417 20.836C64.0937 20.116 64.2697 19.308 64.2697 18.412C64.2697 17.548 64.0937 16.772 63.7417 16.084C63.4057 15.38 62.9337 14.828 62.3257 14.428C61.7177 14.028 61.0297 13.828 60.2617 13.828C59.4937 13.828 58.8057 14.028 58.1977 14.428C57.5897 14.812 57.1097 15.356 56.7577 16.06C56.4217 16.748 56.2537 17.532 56.2537 18.412C56.2537 19.324 56.4217 20.14 56.7577 20.86C57.1097 21.564 57.5897 22.116 58.1977 22.516C58.8057 22.916 59.4937 23.116 60.2617 23.116Z" fill="#282828"/>
<path d="M71.7224 25.156C70.6824 25.156 69.8984 24.916 69.3704 24.436C68.8424 23.956 68.5784 23.148 68.5784 22.012V6.844H71.2184V21.364C71.2184 21.924 71.3064 22.324 71.4824 22.564C71.6584 22.804 72.0184 22.924 72.5624 22.924H73.3064V25.156H71.7224Z" fill="#282828"/>
<path d="M80.1959 25.42C78.5159 25.42 77.1079 25.02 75.9719 24.22C74.8519 23.404 74.1799 22.252 73.9559 20.764H76.6199C76.8119 21.548 77.2039 22.156 77.7959 22.588C78.4039 23.02 79.2039 23.236 80.1959 23.236C81.0119 23.236 81.6679 23.084 82.1639 22.78C82.6599 22.46 82.9079 22.012 82.9079 21.436C82.9079 20.988 82.7559 20.636 82.4519 20.38C82.1479 20.108 81.7639 19.9 81.2999 19.756C80.8359 19.612 80.2199 19.46 79.4519 19.3C78.3959 19.092 77.5399 18.876 76.8839 18.652C76.2279 18.428 75.6679 18.06 75.2039 17.548C74.7399 17.036 74.5079 16.332 74.5079 15.436C74.5079 14.172 74.9799 13.204 75.9239 12.532C76.8679 11.86 78.0679 11.524 79.5239 11.524C81.0279 11.524 82.2839 11.916 83.2919 12.7C84.2999 13.468 84.9239 14.54 85.1639 15.916H82.6919C82.4999 15.164 82.1239 14.604 81.5639 14.236C81.0039 13.868 80.3239 13.684 79.5239 13.684C78.7559 13.684 78.1559 13.828 77.7239 14.116C77.2919 14.404 77.0759 14.796 77.0759 15.292C77.0759 15.692 77.2199 16.012 77.5079 16.252C77.7959 16.476 78.1479 16.652 78.5639 16.78C78.9959 16.908 79.5959 17.044 80.3639 17.188C81.4519 17.396 82.3399 17.62 83.0279 17.86C83.7159 18.084 84.2999 18.468 84.7799 19.012C85.2759 19.54 85.5239 20.276 85.5239 21.22C85.5239 22.5 85.0519 23.524 84.1079 24.292C83.1639 25.044 81.8599 25.42 80.1959 25.42Z" fill="#282828"/>
<path d="M91.3445 25.156C90.3045 25.156 89.5205 24.916 88.9925 24.436C88.4645 23.956 88.2005 23.148 88.2005 22.012V13.996H86.1365V11.788H88.2005V6.844H90.8405V11.788H93.6245V13.996H90.8405V21.316C90.8405 21.876 90.9205 22.284 91.0805 22.54C91.2405 22.796 91.6085 22.924 92.1845 22.924H93.6005V25.156H91.3445Z" fill="#282828"/>
<path d="M97.7302 25.156H95.0902V11.788H97.7302V25.156ZM96.4102 9.916C95.9302 9.916 95.5142 9.756 95.1622 9.436C94.8102 9.116 94.6342 8.716 94.6342 8.236C94.6342 7.756 94.8102 7.356 95.1622 7.036C95.5142 6.716 95.9302 6.556 96.4102 6.556C96.9062 6.556 97.3222 6.716 97.6582 7.036C98.0102 7.356 98.1862 7.756 98.1862 8.236C98.1862 8.716 98.0102 9.116 97.6582 9.436C97.3222 9.756 96.9062 9.916 96.4102 9.916Z" fill="#282828"/>
<path d="M106.015 25.42C104.719 25.42 103.567 25.124 102.559 24.532C101.567 23.94 100.791 23.116 100.231 22.06C99.6707 20.988 99.3907 19.772 99.3907 18.412C99.3907 17.084 99.6707 15.9 100.231 14.86C100.791 13.82 101.567 13.004 102.559 12.412C103.567 11.82 104.719 11.524 106.015 11.524C107.567 11.524 108.879 11.924 109.951 12.724C111.039 13.524 111.743 14.596 112.063 15.94H109.231C108.991 15.252 108.591 14.716 108.031 14.332C107.471 13.948 106.799 13.756 106.015 13.756C105.247 13.756 104.567 13.956 103.975 14.356C103.383 14.74 102.919 15.284 102.583 15.988C102.247 16.692 102.079 17.5 102.079 18.412C102.079 19.356 102.247 20.188 102.583 20.908C102.919 21.628 103.383 22.188 103.975 22.588C104.567 22.988 105.247 23.188 106.015 23.188C106.847 23.188 107.551 22.972 108.127 22.54C108.719 22.092 109.111 21.5 109.303 20.764H112.159C111.855 22.204 111.143 23.34 110.023 24.172C108.919 25.004 107.583 25.42 106.015 25.42Z" fill="#282828"/>
<path d="M119.751 25.42C118.455 25.42 117.303 25.124 116.295 24.532C115.287 23.924 114.503 23.1 113.943 22.06C113.383 21.004 113.103 19.828 113.103 18.532C113.103 17.316 113.351 16.172 113.847 15.1C114.359 14.028 115.111 13.164 116.103 12.508C117.095 11.852 118.287 11.524 119.679 11.524C120.863 11.524 121.951 11.78 122.943 12.292C123.951 12.804 124.759 13.572 125.367 14.596C125.975 15.604 126.279 16.836 126.279 18.292V19.012H115.791C115.839 19.54 115.967 20.02 116.175 20.452C116.495 21.268 116.975 21.916 117.615 22.396C118.255 22.876 118.983 23.116 119.799 23.116C120.647 23.116 121.375 22.9 121.983 22.468C122.591 22.02 123.031 21.452 123.303 20.764H126.063C125.615 22.14 124.855 23.26 123.783 24.124C122.727 24.988 121.383 25.42 119.751 25.42ZM123.543 16.876C123.479 16.38 123.343 15.956 123.135 15.604C122.815 14.996 122.351 14.532 121.743 14.212C121.151 13.876 120.495 13.708 119.775 13.708C119.023 13.708 118.359 13.876 117.783 14.212C117.207 14.532 116.751 14.996 116.415 15.604C116.223 15.924 116.071 16.348 115.959 16.876H123.543Z" fill="#282828"/>
</svg>
